<svg width="100%" viewBox="0 0 680 180" xmlns="http://www.w3.org/2000/svg" role="img">
  <title>docs</title>
  <desc>Personal documentation hub</desc>
  <defs>
    <linearGradient id="bgp" x1="0" y1="0" x2="0.35" y2="1">
      <stop offset="0%" stop-color="#1e1e1e"/>
      <stop offset="55%" stop-color="#131313"/>
      <stop offset="100%" stop-color="#070707"/>
    </linearGradient>
    <linearGradient id="titleg" x1="0" y1="0" x2="0.25" y2="1">
      <stop offset="0%" stop-color="#ffffff"/>
      <stop offset="55%" stop-color="#d6d6d6"/>
      <stop offset="100%" stop-color="#7d7d7d"/>
    </linearGradient>
    <g id="stack" stroke="#6f6f6f" stroke-width="2.2" stroke-linecap="round" stroke-linejoin="round" fill="none">
      <rect x="-8" y="-32" width="40" height="52" rx="5" opacity=".35"/>
      <rect x="-19" y="-26" width="40" height="52" rx="5" opacity=".55" fill="#131313"/>
      <rect x="-30" y="-20" width="40" height="52" rx="5" fill="#131313"/>
      <path d="M-22 -8H2"/>
      <path d="M-22 0H2"/>
      <path d="M-22 8H-4"/>
      <path d="M-22 16H-10"/>
    </g>
  </defs>
  <rect x="0" y="0" width="680" height="180" rx="14" fill="url(#bgp)"/>
  <g fill="#ffffff">
    <circle cx="42" cy="34" r="1.1" opacity=".45"/>
    <circle cx="96" cy="140" r="1" opacity=".3"/>
    <circle cx="150" cy="52" r="1.3" opacity=".55"/>
    <circle cx="188" cy="146" r="1" opacity=".26"/>
    <circle cx="232" cy="26" r="1.1" opacity=".4"/>
    <circle cx="268" cy="160" r="1" opacity=".24"/>
    <circle cx="316" cy="42" r="1.2" opacity=".5"/>
    <circle cx="360" cy="150" r="1" opacity=".28"/>
    <circle cx="404" cy="24" r="1.1" opacity=".45"/>
    <circle cx="448" cy="138" r="1.2" opacity=".35"/>
    <circle cx="492" cy="46" r="1" opacity=".3"/>
    <circle cx="536" cy="158" r="1.1" opacity=".26"/>
    <circle cx="576" cy="30" r="1.2" opacity=".45"/>
    <circle cx="624" cy="118" r="1" opacity=".32"/>
    <circle cx="652" cy="60" r="1.1" opacity=".4"/>
    <circle cx="20" cy="96" r="1" opacity=".26"/>
  </g>
  <use href="#stack" transform="translate(82 92)" opacity=".85"/>
  <use href="#stack" transform="translate(598 92) scale(-1 1)" opacity=".85"/>
  <text x="340" y="92" text-anchor="middle" font-family="Helvetica, Arial, sans-serif" font-size="56" font-weight="700" fill="url(#titleg)" letter-spacing="-1">docs</text>
  <text x="340" y="128" text-anchor="middle" font-family="Helvetica, Arial, sans-serif" font-size="16" font-style="italic" fill="#8f8f8f">Personal documentation hub</text>
</svg>
